<svg width="60" height="61" viewBox="0 0 60 61" fill="none" xmlns="http://www.w3.org/2000/svg">
<path d="M27.4999 46.6691H32.5001V32.5027H46.6666V27.5024H32.5001V13.3359H27.4999V27.5024H13.3333V32.5027H27.4999V46.6691ZM5 60.0026C3.66666 60.0026 2.5 59.5024 1.5 58.5024C0.500001 57.5024 0 56.336 0 55.0026V5.00256C0 3.66922 0.500001 2.50256 1.5 1.50256C2.5 0.502564 3.66666 0.00256348 5 0.00256348H55C56.3334 0.00256348 57.4999 0.502564 58.4999 1.50256C59.4999 2.50256 60 3.66922 60 5.00256V55.0026C60 56.336 59.4999 57.5024 58.4999 58.5024C57.4999 59.5024 56.3334 60.0026 55 60.0026H5ZM5 55.0026H55V5.00256H5V55.0026Z" fill="#CB6E49"/>
</svg>
