<svg width="77" height="61" viewBox="0 0 77 61" fill="none" xmlns="http://www.w3.org/2000/svg">
<path d="M2.87605 60.0026C1.53574 60.0026 0.642216 59.3775 0.195468 58.1274C-0.25131 56.8775 0.0678078 55.815 1.15282 54.9399L35.4257 28.5961V23.44C35.4257 22.6274 35.697 21.9556 36.2395 21.4243C36.782 20.893 37.4364 20.6276 38.2021 20.6276C40.372 20.6901 42.2071 19.9869 43.707 18.5182C45.2068 17.0494 45.9566 15.2526 45.9566 13.1275C45.9566 11.065 45.2068 9.2994 43.707 7.83066C42.2071 6.36192 40.404 5.62755 38.2979 5.62755C36.1918 5.62755 34.3887 6.36192 32.8888 7.83066C31.389 9.2994 30.6389 11.065 30.6389 13.1275H24.8948C24.8948 9.50254 26.2035 6.40878 28.8201 3.84631C31.4367 1.28381 34.5962 0.00256348 38.2979 0.00256348C41.9996 0.00256348 45.1588 1.25255 47.7757 3.75254C50.3923 6.25253 51.7006 9.31505 51.7006 12.94C51.7006 16.0025 50.7113 18.7214 48.733 21.0962C46.7544 23.4713 44.2335 25.0963 41.1698 25.9713V28.5961L75.4427 54.9399C76.5278 55.815 76.8471 56.8775 76.4003 58.1274C75.9535 59.3775 75.06 60.0026 73.7196 60.0026H2.87605ZM11.4922 54.3776H65.1034L38.2979 33.4712L11.4922 54.3776Z" fill="#CB6E49"/>
</svg>
