<svg width="60" height="60" viewBox="0 0 60 60" fill="none" xmlns="http://www.w3.org/2000/svg">
<path d="M29.9999 60C21.6874 60 14.6093 57.0779 8.7656 51.2343C2.92186 45.3904 0 38.3124 0 29.9999C0 21.6874 2.92186 14.6093 8.7656 8.7656C14.6093 2.92186 21.6874 0 29.9999 0C35.3125 0 39.9687 1.07811 43.9687 3.23436C47.9688 5.39061 51.4372 8.34374 54.375 12.0937V0H60V23.8125H36.1875V18.1875H51.9375C49.5623 14.4375 46.5311 11.4062 42.8437 9.09373C39.156 6.78122 34.875 5.62499 29.9999 5.62499C23.1875 5.62499 17.422 7.98435 12.7031 12.7031C7.98435 17.422 5.62499 23.1875 5.62499 29.9999C5.62499 36.8123 7.98435 42.5781 12.7031 47.2967C17.422 52.0156 23.1875 54.375 29.9999 54.375C35.1873 54.375 39.9373 52.8906 44.25 49.9218C48.5625 46.9529 51.5624 43.0313 53.25 38.1562H59.0623C57.2498 44.7186 53.6562 49.9999 48.2812 53.9999C42.9061 58 36.8123 60 29.9999 60Z" fill="#CB6E49"/>
</svg>
