<svg width="21" height="21" viewBox="0 0 21 21" fill="none" xmlns="http://www.w3.org/2000/svg">
<path d="M17.9638 8.81234C17.989 5.8516 15.4673 3.1374 12.3426 2.76207C12.2804 2.75468 12.2127 2.74349 12.1411 2.73159C11.9864 2.70596 11.8264 2.67963 11.665 2.67963C11.0246 2.67963 10.8534 3.12948 10.8083 3.39781C10.7645 3.65867 10.8063 3.87773 10.9323 4.04921C11.1444 4.33759 11.5176 4.38878 11.8173 4.42984C11.9052 4.44198 11.9881 4.45326 12.0575 4.46884C14.8649 5.09618 15.8103 6.08243 16.2723 8.86603C16.2835 8.93403 16.2886 9.01787 16.294 9.10675C16.3142 9.43951 16.3562 10.1318 17.1005 10.1318H17.1005C17.1625 10.1318 17.2291 10.1264 17.2984 10.1159C17.9915 10.0105 17.9697 9.37774 17.9593 9.07369C17.9564 8.98805 17.9536 8.90705 17.9608 8.85319C17.9627 8.83962 17.9637 8.82596 17.9638 8.81234Z" fill="white"/>
<path d="M11.4833 1.67532C11.5664 1.68131 11.6452 1.68705 11.7107 1.6971C16.3208 2.40609 18.441 4.59033 19.0285 9.23652C19.0385 9.31551 19.04 9.41182 19.0417 9.51382C19.0475 9.87681 19.0596 10.632 19.8706 10.6476L19.8958 10.6479C20.1501 10.6479 20.3524 10.5712 20.4971 10.4197C20.7496 10.1557 20.732 9.7634 20.7178 9.44812C20.7143 9.37076 20.711 9.29792 20.7118 9.23414C20.7704 4.48229 16.6572 0.173331 11.9096 0.0131249C11.8899 0.0124687 11.8711 0.0135351 11.8522 0.0162011C11.8428 0.0175546 11.8255 0.0192773 11.7959 0.0192773C11.7486 0.0192773 11.6903 0.0151757 11.6286 0.0109921C11.5539 0.00586521 11.4692 0 11.3834 0C10.6274 0 10.4836 0.537385 10.4653 0.857715C10.4228 1.59809 11.1391 1.65018 11.4833 1.67532Z" fill="white"/>
<path d="M18.806 15.2414C18.708 15.1666 18.6067 15.0891 18.5118 15.0126C18.0085 14.6076 17.473 14.2342 16.9551 13.8731C16.8476 13.7983 16.7401 13.7233 16.633 13.6482C15.9696 13.1822 15.3732 12.9558 14.8097 12.9558C14.0508 12.9558 13.3891 13.3751 12.843 14.202C12.6011 14.5686 12.3075 14.7468 11.9458 14.7468C11.7319 14.7468 11.4888 14.6858 11.2234 14.5653C9.08209 13.5943 7.55308 12.1055 6.67875 10.1403C6.25609 9.19046 6.39312 8.56961 7.13698 8.0643C7.5594 7.7776 8.34566 7.24387 8.28996 6.2218C8.22688 5.06115 5.66596 1.5688 4.58692 1.17218C4.13009 1.00419 3.65009 1.00263 3.1577 1.16829C1.91723 1.58529 1.02707 2.31762 0.583199 3.28596C0.154259 4.22164 0.173619 5.32028 0.639226 6.46314C1.98519 9.76743 3.87752 12.6484 6.26388 15.0257C8.59971 17.3529 11.4706 19.2592 14.7968 20.6914C15.0966 20.8204 15.4111 20.8908 15.6407 20.9421C15.719 20.9597 15.7865 20.9747 15.8358 20.9882C15.8629 20.9956 15.8907 20.9996 15.9188 20.9998L15.945 21C15.9451 21 15.945 21 15.9452 21C17.5096 21 19.388 19.5704 19.965 17.9406C20.4704 16.5136 19.5476 15.8082 18.806 15.2414Z" fill="white"/>
<path d="M12.1752 5.4498C11.9074 5.45657 11.35 5.47039 11.1544 6.03813C11.0629 6.30342 11.0738 6.53376 11.187 6.72276C11.353 7.00007 11.6712 7.08505 11.9606 7.13168C13.01 7.30009 13.5489 7.88038 13.6567 8.95777C13.7068 9.46013 14.0451 9.81094 14.4794 9.81094H14.4795C14.5116 9.81094 14.5444 9.80905 14.5771 9.80507C15.0995 9.74293 15.3527 9.35911 15.3299 8.66443C15.3382 7.9394 14.9588 7.1163 14.3135 6.46067C13.6658 5.80303 12.8853 5.43266 12.1752 5.4498Z" fill="white"/>
</svg>
