<svg width="29" height="17" viewBox="0 0 29 17" fill="none" xmlns="http://www.w3.org/2000/svg">
<path d="M25.8129 11.8321C25.8129 11.8321 28.1576 14.1477 28.7376 15.2193C28.7488 15.2348 28.7576 15.2519 28.7637 15.27C29 15.6659 29.058 15.9762 28.942 16.2053C28.7463 16.5837 28.0836 16.7737 27.8589 16.7896H23.7148C23.4262 16.7896 22.8259 16.7142 22.0951 16.2096C21.5369 15.8196 20.9815 15.1772 20.4436 14.5494C19.6403 13.617 18.9457 12.8079 18.2425 12.8079C18.1536 12.8078 18.0654 12.8225 17.9815 12.8514C17.4493 13.0196 16.7736 13.778 16.7736 15.7978C16.7736 16.43 16.2748 16.7896 15.9254 16.7896H14.0273C13.3806 16.7896 10.0137 16.5634 7.02815 13.4155C3.3698 9.56139 0.0841009 1.82999 0.0522009 1.76184C-0.152249 1.26159 0.276951 0.988993 0.740951 0.988993H4.92565C5.4868 0.988993 5.6695 1.32829 5.7971 1.63279C5.945 1.98224 6.4931 3.38004 7.3921 4.95039C8.8479 7.50529 9.74255 8.54494 10.4574 8.54494C10.5917 8.54534 10.7237 8.51033 10.8402 8.44344C11.774 7.93014 11.6 4.59514 11.5565 3.90784C11.5565 3.77444 11.5551 2.41869 11.0766 1.76329C10.7344 1.29349 10.1515 1.11079 9.7991 1.04409C9.89335 0.907792 10.0935 0.698992 10.3501 0.575742C10.9896 0.256742 12.1452 0.210342 13.2922 0.210342H13.9287C15.1728 0.227742 15.4947 0.307492 15.9471 0.422042C16.8577 0.639542 16.8751 1.22969 16.7954 3.23939C16.7722 3.81359 16.7475 4.46029 16.7475 5.22154C16.7475 5.38394 16.7403 5.56519 16.7403 5.74934C16.7127 6.78029 16.6765 7.94174 17.4044 8.41879C17.4988 8.4776 17.6078 8.50875 17.719 8.50869C17.9713 8.50869 18.7268 8.50869 20.7756 4.99244C21.6746 3.43949 22.3706 1.60814 22.4185 1.47039C22.4591 1.39354 22.5809 1.17749 22.7288 1.09049C22.834 1.03452 22.9518 1.00655 23.071 1.00929H27.9937C28.5302 1.00929 28.8942 1.09049 28.9652 1.29349C29.0841 1.62264 28.942 2.62749 26.6945 5.66669C26.3161 6.17274 25.984 6.61064 25.6926 6.99344C23.6553 9.66724 23.6553 9.80209 25.8129 11.8321Z" fill="white"/>
</svg>
